<svg width="24" height="24" viewBox="0 0 24 24" fill="none"
	xmlns="http://www.w3.org/2000/svg">
	<path d="M22.2324 11.9625C22.2339 17.6355 17.7624 22.236 12.2444 22.2375C6.72638 22.2395 2.25138 17.6415 2.24988 11.9685V11.962C2.24838 6.2885 6.71988 1.688 12.2379 1.6865C17.7559 1.685 22.2304 6.282 22.2324 11.9555V11.9625Z" fill="url(#paint0_linear_2003_723)"/>
	<path d="M13.2189 1.8285L9.21888 2.0785C9.13032 2.08309 9.04434 2.10992 8.96888 2.1565L5.46888 4.4065C5.3934 4.45306 5.33084 4.51786 5.28695 4.59492C5.24306 4.67198 5.21925 4.75884 5.21771 4.84751C5.21617 4.93618 5.23694 5.02382 5.27812 5.10237C5.3193 5.18091 5.37957 5.24784 5.45338 5.297C5.91488 5.608 6.37188 5.966 6.50038 6.297C6.77688 7.03 7.09088 8.104 7.35988 9.0315C7.47778 9.44512 7.6028 9.85668 7.73488 10.266C7.79138 10.437 7.83788 10.59 7.89088 10.719C7.94388 10.848 7.97738 10.946 8.10988 11.094C8.12988 11.111 8.15038 11.1265 8.17238 11.141C8.40888 11.3335 8.65538 11.439 8.95338 11.5315C9.25138 11.624 9.59538 11.697 9.92238 11.7505C10.2494 11.804 10.5629 11.8235 10.8444 11.8285C11.1259 11.8335 11.3244 11.895 11.6569 11.688C11.6729 11.6785 11.6889 11.668 11.7039 11.657C11.8464 11.5435 11.8609 11.4675 11.8914 11.407C11.9219 11.3465 11.9479 11.296 11.9694 11.235C12.0129 11.113 12.0524 10.976 12.0944 10.813C12.2937 10.0276 12.4347 9.22863 12.5164 8.4225C12.5524 8.0685 12.5954 7.834 12.5164 7.5165C12.5124 7.5 12.5214 7.4865 12.5164 7.4695H12.4999C12.4199 7.083 12.2149 6.5235 11.8594 5.8915C11.5424 5.32965 11.1176 4.83588 10.6094 4.4385C10.6274 4.4195 10.6679 4.3855 10.7654 4.3445L12.7189 4.3595C12.7774 4.359 12.8354 4.348 12.8909 4.3285C12.9369 4.3135 12.9854 4.3455 13.2189 4.2345C13.3359 4.1795 13.4789 4.0525 13.5469 3.922C13.6149 3.7915 13.6434 3.681 13.6564 3.5625L13.7814 2.422C13.7909 2.34444 13.7832 2.26573 13.7588 2.1915C13.7343 2.11728 13.6938 2.04938 13.64 1.99266C13.5863 1.93594 13.5206 1.89181 13.4478 1.86343C13.375 1.83505 13.2968 1.82312 13.2189 1.8285Z" fill="url(#paint1_linear_2003_723)"/>
	<path d="M13.2499 2.3595L13.1249 3.4985C13.0899 3.8225 12.9534 3.7435 12.7134 3.8215L10.6554 3.814C10.0484 4.009 9.98188 4.332 10.0229 4.608C11.1759 5.249 11.8959 7.0685 12.0004 7.609C12.1484 8.13 11.5779 11.0725 11.3754 11.234C11.0339 11.4465 9.01038 11.149 8.50038 10.734C8.22638 10.4265 7.58188 7.6505 7.00038 6.109C6.78638 5.5575 6.21238 5.17 5.75038 4.859L9.25038 2.609L13.2499 2.3595Z" fill="url(#paint2_radial_2003_723)"/>
	<path d="M3.26538 8.1565C3.17064 8.16541 3.08091 8.20317 3.00831 8.26468C2.93571 8.3262 2.88373 8.40851 2.85938 8.5005L1.65638 12.61C1.62878 12.7047 1.63208 12.8057 1.6658 12.8984C1.69951 12.9911 1.76189 13.0707 1.84388 13.1255C2.30538 13.436 2.78288 13.7985 2.92188 14.1565C2.93483 14.184 2.95058 14.2102 2.96888 14.2345C2.97288 14.248 2.97838 14.254 2.98438 14.2815C3.00588 14.3745 3.03088 14.536 3.06238 14.719C3.12588 15.085 3.21338 15.5815 3.32788 16.094C3.44238 16.6065 3.58338 17.136 3.79688 17.594C4.01038 18.052 4.29588 18.476 4.79688 18.641C4.67538 18.601 4.77638 18.646 4.84388 18.688C4.91138 18.73 4.99988 18.7875 5.10938 18.86C5.32838 19.005 5.60838 19.187 5.89038 19.3755C6.17238 19.564 6.45588 19.764 6.68738 19.9065C6.80288 19.978 6.90788 20.0305 6.99988 20.0785C7.04588 20.1025 7.08738 20.121 7.14038 20.141C7.19338 20.161 7.22438 20.2105 7.43738 20.172C7.68238 20.128 7.75788 19.9915 7.79688 19.922C7.83588 19.8525 7.84438 19.8 7.85938 19.75C7.88888 19.6505 7.91938 19.551 7.93738 19.4375C7.97388 19.21 8.00038 18.9295 8.03138 18.6565C8.06238 18.3835 8.09388 18.107 8.12538 17.922C8.13838 17.846 8.14838 17.8125 8.15638 17.7815C8.19088 17.752 8.23988 17.756 8.26588 17.719C8.36788 17.5755 8.37938 17.4265 8.37538 17.313C8.36688 17.0855 8.29438 16.9115 8.20338 16.719C8.02138 16.3335 7.72338 15.89 7.39088 15.422C6.74938 14.5185 6.01588 13.629 5.68788 13.266C5.66038 13.176 5.64488 13.0835 5.60988 12.985C5.56638 12.862 5.51738 12.728 5.48488 12.61C6.17638 12.905 6.89288 13.171 7.68788 13.266C7.73523 13.2681 7.78263 13.2629 7.82838 13.2505C8.0765 13.2088 8.31818 13.1352 8.54738 13.0315C8.68238 12.9705 8.82538 12.908 8.95338 12.797C9.08138 12.686 9.22388 12.508 9.25038 12.266C9.26244 12.1559 9.23478 12.045 9.17238 11.9535C8.28388 10.6255 7.00688 10.286 5.67238 9.7975L4.90588 8.8595C4.859 8.80508 4.80012 8.76229 4.73388 8.7345L3.49938 8.2035C3.42694 8.16734 3.34617 8.15111 3.26538 8.1565Z" fill="url(#paint3_linear_2003_723)"/>
	<path d="M5.38738 10.1905C6.79738 10.7165 7.95388 10.9845 8.77688 12.2145C8.74188 12.538 8.03388 12.756 7.74638 12.803C6.89238 12.7005 6.10638 12.394 5.33488 12.044C4.57188 11.8795 5.23588 13.2255 5.27688 13.5015C5.82188 14.0945 8.52488 17.4085 7.78288 17.4985C7.60088 17.521 7.52238 19.696 7.35288 19.726C7.18338 19.756 5.12188 18.257 4.93688 18.1965C3.74838 17.805 3.55338 14.097 3.35938 13.986C3.14588 13.4345 2.57138 13.047 2.10938 12.736L3.31138 8.63L4.55238 9.1605L5.38738 10.1905Z" fill="url(#paint4_radial_2003_723)"/>
	<path d="M22.1664 6.5725L22.1509 3.1035C22.1519 3.02114 22.1364 2.93942 22.1054 2.86314C22.0743 2.78685 22.0283 2.71755 21.9701 2.65932C21.9118 2.60108 21.8425 2.55508 21.7662 2.52402C21.69 2.49297 21.6082 2.47749 21.5259 2.4785L18.3539 2.4475C18.2323 2.44682 18.1132 2.48189 18.0114 2.54835C17.9097 2.61481 17.8296 2.70972 17.7814 2.82129C17.7331 2.93286 17.7187 3.05617 17.7399 3.17586C17.7612 3.29555 17.8172 3.40636 17.9009 3.4945L21.0884 6.9945C21.2609 7.185 21.5334 7.249 21.7734 7.1555C21.8902 7.10954 21.9903 7.0292 22.0605 6.92509C22.1307 6.82099 22.1676 6.69804 22.1664 6.5725Z" fill="black" fill-opacity="0.32"/>
	<path d="M21.9579 6.573L21.9424 3.104C21.941 2.99677 21.8977 2.89432 21.8219 2.81849C21.7461 2.74266 21.6436 2.69942 21.5364 2.698L18.3644 2.667C18.2846 2.66667 18.2064 2.6894 18.1393 2.73245C18.0721 2.77551 18.0188 2.83705 17.9858 2.90968C17.9528 2.98231 17.9414 3.06293 17.9532 3.14185C17.9649 3.22076 17.9992 3.29461 18.0519 3.3545L21.2394 6.8545C21.2958 6.91612 21.3695 6.9592 21.4509 6.97809C21.5323 6.99698 21.6174 6.99078 21.6952 6.9603C21.773 6.92983 21.8397 6.87652 21.8866 6.80738C21.9335 6.73825 21.9583 6.65653 21.9579 6.573Z" fill="black" fill-opacity="0.32"/>
	<path d="M21.8229 6.5725L21.8074 3.1035C21.808 3.0664 21.8012 3.02956 21.7874 2.99513C21.7735 2.96069 21.753 2.92937 21.7269 2.903C21.7005 2.87688 21.6692 2.85627 21.6348 2.84236C21.6003 2.82846 21.5635 2.82154 21.5264 2.822L18.3544 2.791C18.2999 2.79057 18.2466 2.80617 18.2009 2.83585C18.1553 2.86553 18.1193 2.90799 18.0977 2.95793C18.076 3.00788 18.0694 3.0631 18.0789 3.11672C18.0884 3.17035 18.1134 3.22 18.1509 3.2595L21.3384 6.7595C21.3758 6.80186 21.4253 6.83174 21.4803 6.84513C21.5352 6.85853 21.5929 6.8548 21.6456 6.83444C21.6984 6.81409 21.7436 6.77808 21.7753 6.73125C21.807 6.68443 21.8236 6.62903 21.8229 6.5725Z" fill="black" fill-opacity="0.32"/>
	<path d="M21.6699 6.575L21.6544 3.106C21.6523 3.08949 21.647 3.07353 21.6389 3.059C21.632 3.04133 21.6214 3.02531 21.6079 3.012C21.6031 3.00646 21.5979 3.00128 21.5924 2.9965C21.5732 2.98607 21.5517 2.98073 21.5299 2.981C21.5251 2.97546 21.5199 2.97028 21.5144 2.9655L18.3424 2.9345C18.3314 2.93824 18.321 2.94346 18.3114 2.95C18.2949 2.95219 18.2789 2.95745 18.2644 2.9655C18.2525 2.97414 18.242 2.9846 18.2334 2.9965C18.2255 3.01113 18.2202 3.02704 18.2179 3.0435C18.2099 3.06889 18.2099 3.09611 18.2179 3.1215C18.2249 3.1391 18.2355 3.15509 18.2489 3.1685L21.4364 6.6685C21.4513 6.68133 21.4688 6.69075 21.4877 6.6961C21.5066 6.70146 21.5265 6.70262 21.5459 6.6995C21.5677 6.69953 21.5891 6.69421 21.6084 6.684C21.6144 6.679 21.6189 6.674 21.6239 6.6685C21.6376 6.65532 21.6482 6.63927 21.6549 6.6215C21.6626 6.60699 21.6676 6.59125 21.6699 6.575Z" fill="black" fill-opacity="0.33"/>
	<path d="M18.5429 3.1275L21.5069 3.1145L21.4784 6.299L18.5429 3.1275Z" fill="url(#paint5_linear_2003_723)"/>
	<path d="M18.5624 21.297L22.0314 21.2815C22.1137 21.2824 22.1954 21.2669 22.2717 21.2358C22.3479 21.2048 22.4172 21.1588 22.4754 21.1005C22.5336 21.0423 22.5796 20.973 22.6107 20.8968C22.6418 20.8205 22.6573 20.7388 22.6564 20.6565L22.6874 17.4845C22.6885 17.3627 22.6537 17.2433 22.5874 17.1412C22.521 17.0392 22.426 16.9589 22.3142 16.9106C22.2024 16.8622 22.0789 16.8479 21.9591 16.8694C21.8392 16.8909 21.7283 16.9473 21.6404 17.0315L18.1404 20.219C18.0472 20.3033 17.9819 20.4139 17.9531 20.5362C17.9243 20.6585 17.9334 20.7867 17.9792 20.9037C18.025 21.0207 18.1054 21.121 18.2095 21.1912C18.3137 21.2615 18.4368 21.2984 18.5624 21.297Z" fill="black" fill-opacity="0.32"/>
	<path d="M18.5729 21.089L22.0419 21.0735C22.1491 21.0719 22.2514 21.0287 22.3273 20.9529C22.4031 20.8771 22.4463 20.7747 22.4479 20.6675L22.4789 17.4955C22.4794 17.4156 22.4568 17.3373 22.4138 17.27C22.3708 17.2027 22.3092 17.1493 22.2365 17.1162C22.1638 17.0832 22.0831 17.0719 22.0041 17.0838C21.9251 17.0956 21.8512 17.1301 21.7914 17.183L18.2914 20.3705C18.2295 20.4268 18.1862 20.5005 18.1671 20.582C18.1481 20.6635 18.1542 20.7488 18.1847 20.8267C18.2153 20.9046 18.2687 20.9714 18.338 21.0182C18.4073 21.065 18.4892 21.0897 18.5729 21.089Z" fill="black" fill-opacity="0.32"/>
	<path d="M18.5624 20.9535L22.0314 20.938C22.0684 20.9383 22.1051 20.9313 22.1393 20.9173C22.1736 20.9033 22.2047 20.8826 22.2308 20.8564C22.257 20.8303 22.2777 20.7992 22.2917 20.7649C22.3057 20.7307 22.3127 20.694 22.3124 20.657L22.3434 17.485C22.3448 17.4301 22.3297 17.3761 22.3002 17.3298C22.2707 17.2836 22.2281 17.2472 22.1777 17.2253C22.1274 17.2035 22.0717 17.1971 22.0177 17.2071C21.9638 17.2171 21.914 17.243 21.8749 17.2815L18.3749 20.469C18.3302 20.4696 18.2864 20.4811 18.2471 20.5023C18.2078 20.5236 18.1743 20.554 18.1493 20.5911C18.1243 20.6281 18.1087 20.6706 18.1037 20.715C18.0987 20.7594 18.1045 20.8043 18.1206 20.8459C18.1367 20.8876 18.1627 20.9247 18.1962 20.9542C18.2298 20.9836 18.27 21.0045 18.3134 21.0151C18.3568 21.0257 18.4021 21.0256 18.4454 21.0149C18.4888 21.0041 18.5289 20.9831 18.5624 20.9535Z" fill="black" fill-opacity="0.32"/>
	<path d="M18.5484 20.803L22.0174 20.7875C22.0339 20.7853 22.0498 20.7801 22.0644 20.772C22.0821 20.7651 22.0981 20.7545 22.1114 20.741C22.1169 20.7362 22.1221 20.731 22.1269 20.7255C22.1373 20.7063 22.1426 20.6848 22.1424 20.663C22.1479 20.6582 22.1531 20.653 22.1579 20.6475L22.1889 17.4755C22.1849 17.4646 22.1797 17.4542 22.1734 17.4445C22.171 17.4281 22.1657 17.4122 22.1579 17.3975C22.1492 17.3856 22.1388 17.3751 22.1269 17.3665C22.1123 17.3586 22.0963 17.3533 22.0799 17.351C22.0545 17.343 22.0273 17.343 22.0019 17.351C21.9842 17.3579 21.9682 17.3685 21.9549 17.382L18.4549 20.5695C18.4421 20.5844 18.4326 20.6019 18.4273 20.6208C18.4219 20.6397 18.4208 20.6596 18.4239 20.679C18.4239 20.701 18.4294 20.7225 18.4394 20.7415C18.4439 20.7475 18.4499 20.752 18.4549 20.757C18.468 20.7708 18.4841 20.7814 18.5019 20.788C18.5163 20.7959 18.5321 20.801 18.5484 20.803Z" fill="black" fill-opacity="0.33"/>
	<path d="M21.9979 17.0715L22.0084 20.6185H18.6049L21.9979 17.0715Z" fill="url(#paint6_linear_2003_723)"/>
	<path d="M1.31238 17.172L1.32788 20.641C1.32708 20.7233 1.3427 20.8049 1.37382 20.8811C1.40495 20.9573 1.45096 21.0265 1.50915 21.0847C1.56735 21.1429 1.63657 21.1889 1.71276 21.2201C1.78895 21.2512 1.87058 21.2668 1.95288 21.266L5.12488 21.297C5.37388 21.2995 5.59938 21.1525 5.69838 20.924C5.7467 20.8122 5.76104 20.6887 5.73961 20.5689C5.71818 20.449 5.66193 20.3381 5.57788 20.25L2.39038 16.75C2.30587 16.6574 2.19525 16.5925 2.07313 16.5641C1.95101 16.5356 1.82313 16.5448 1.70636 16.5905C1.58959 16.6362 1.48943 16.7163 1.41909 16.8201C1.34876 16.9239 1.31155 17.0466 1.31238 17.172Z" fill="black" fill-opacity="0.32"/>
	<path d="M1.53088 17.1825L1.54638 20.6515C1.54793 20.7588 1.59128 20.8612 1.66719 20.937C1.7431 21.0129 1.8456 21.0561 1.95288 21.0575L5.12488 21.0885C5.20503 21.0897 5.2838 21.0675 5.35152 21.0246C5.41924 20.9817 5.47298 20.92 5.50615 20.847C5.53933 20.7741 5.55049 20.693 5.53827 20.6138C5.52606 20.5345 5.49099 20.4606 5.43738 20.401L2.24988 16.901C2.19359 16.839 2.11982 16.7956 2.03832 16.7764C1.95682 16.7572 1.87142 16.7632 1.79338 16.7935C1.7154 16.8242 1.64856 16.8778 1.60169 16.9472C1.55482 17.0167 1.53013 17.0987 1.53088 17.1825Z" fill="black" fill-opacity="0.32"/>
	<path d="M1.65638 17.172L1.67188 20.641C1.67117 20.6781 1.67798 20.7149 1.6919 20.7493C1.70583 20.7837 1.72657 20.8149 1.75288 20.841C1.80588 20.8945 1.87788 20.9235 1.95338 20.922L5.12538 20.953C5.1802 20.9543 5.23415 20.9392 5.28034 20.9096C5.32653 20.8801 5.36285 20.8374 5.38465 20.7871C5.40645 20.7368 5.41274 20.6811 5.40271 20.6272C5.39269 20.5733 5.36681 20.5236 5.32838 20.4845L2.14088 16.9845C2.10341 16.9421 2.05385 16.9122 1.99887 16.8988C1.9439 16.8854 1.88615 16.8892 1.83338 16.9096C1.78061 16.9301 1.73536 16.9661 1.70372 17.0131C1.67208 17.06 1.65556 17.1154 1.65638 17.172Z" fill="black" fill-opacity="0.32"/>
	<path d="M1.79438 17.1605L1.80988 20.6295C1.81207 20.646 1.81733 20.6619 1.82538 20.6765C1.83242 20.6941 1.84297 20.7101 1.85638 20.7235C1.86088 20.7295 1.86638 20.734 1.87188 20.739C1.89106 20.7494 1.91257 20.7547 1.93438 20.7545C1.93888 20.7605 1.94438 20.765 1.94988 20.77L5.12188 20.801C5.13282 20.7972 5.14324 20.7919 5.15288 20.7855C5.16932 20.7831 5.18522 20.7778 5.19988 20.77C5.21178 20.7614 5.22224 20.7509 5.23088 20.739C5.23879 20.7244 5.24404 20.7085 5.24638 20.692C5.25436 20.6666 5.25436 20.6394 5.24638 20.614C5.23922 20.5965 5.22869 20.5805 5.21538 20.567L2.02788 17.067C2.01308 17.054 1.99557 17.0445 1.97663 17.0391C1.95769 17.0338 1.93779 17.0327 1.91838 17.036C1.8966 17.036 1.87515 17.0413 1.85588 17.0515C1.85023 17.0562 1.84504 17.0613 1.84038 17.067C1.82681 17.0803 1.81624 17.0963 1.80938 17.114C1.80149 17.1284 1.7964 17.1442 1.79438 17.1605Z" fill="black" fill-opacity="0.33"/>
	<path d="M5.20388 20.607H1.99988V17.116L5.20388 20.607Z" fill="url(#paint7_linear_2003_723)"/>
	<path d="M5.96888 2.4845L2.49988 2.5C2.41758 2.4992 2.33595 2.51482 2.25976 2.54594C2.18357 2.57707 2.11435 2.62307 2.05615 2.68127C1.99796 2.73947 1.95195 2.80869 1.92082 2.88488C1.8897 2.96107 1.87408 3.0427 1.87488 3.125L1.84388 6.297C1.84273 6.41877 1.87752 6.53817 1.9439 6.64026C2.01028 6.74235 2.10529 6.82259 2.21705 6.87094C2.32881 6.9193 2.45235 6.93361 2.57221 6.9121C2.69207 6.89059 2.80291 6.8342 2.89088 6.75L6.39088 3.5625C6.48432 3.47833 6.54989 3.36767 6.57883 3.24529C6.60777 3.1229 6.59872 2.9946 6.55287 2.87749C6.50703 2.76038 6.42657 2.66003 6.32224 2.58981C6.2179 2.5196 6.09463 2.48286 5.96888 2.4845Z" fill="black" fill-opacity="0.32"/>
	<path d="M5.96888 2.7035L2.49988 2.719C2.39269 2.72055 2.29032 2.76382 2.21451 2.83963C2.1387 2.91544 2.09543 3.0178 2.09388 3.125L2.06288 6.297C2.06242 6.37678 2.08505 6.45499 2.12804 6.52219C2.17103 6.5894 2.23254 6.64273 2.30516 6.67577C2.37778 6.7088 2.45841 6.72012 2.53732 6.70836C2.61622 6.6966 2.69005 6.66227 2.74988 6.6095L6.24988 3.422C6.31173 3.36574 6.35505 3.29203 6.3741 3.21062C6.39316 3.12921 6.38706 3.04393 6.35661 2.96606C6.32615 2.88819 6.27278 2.8214 6.20355 2.77452C6.13432 2.72764 6.05249 2.70287 5.96888 2.7035Z" fill="black" fill-opacity="0.32"/>
	<path d="M5.96888 2.8285L2.49988 2.844C2.46281 2.84339 2.426 2.85024 2.39163 2.86415C2.35726 2.87806 2.32604 2.89873 2.29983 2.92495C2.27361 2.95116 2.25294 2.98238 2.23903 3.01675C2.22513 3.05112 2.21827 3.08793 2.21888 3.125L2.18788 6.297C2.18708 6.35161 2.20247 6.40524 2.23211 6.45111C2.26175 6.49698 2.30431 6.53305 2.35442 6.55477C2.40453 6.57648 2.45996 6.58287 2.5137 6.57312C2.56744 6.56338 2.61708 6.53793 2.65638 6.5L6.15638 3.3125C6.19858 3.27498 6.22831 3.22547 6.24158 3.17058C6.25485 3.1157 6.25103 3.05807 6.23064 3.00542C6.21024 2.95276 6.17424 2.9076 6.12745 2.87598C6.08067 2.84436 6.02534 2.82779 5.96888 2.8285Z" fill="black" fill-opacity="0.32"/>
	<path d="M5.96888 2.969L2.49988 2.9845C2.48337 2.98661 2.46741 2.99187 2.45288 3C2.43515 3.00704 2.41913 3.01777 2.40588 3.0315C2.40023 3.03615 2.39504 3.04135 2.39038 3.047C2.38034 3.06631 2.37503 3.08773 2.37488 3.1095C2.36923 3.11415 2.36404 3.11935 2.35938 3.125L2.32838 6.297C2.33202 6.30803 2.33724 6.31847 2.34388 6.328C2.34599 6.34451 2.35125 6.36047 2.35938 6.375C2.36802 6.3869 2.37848 6.39736 2.39038 6.406C2.40491 6.41413 2.42087 6.41939 2.43738 6.4215C2.46277 6.42948 2.48999 6.42948 2.51538 6.4215C2.53305 6.41458 2.54907 6.40402 2.56238 6.3905L6.06238 3.203C6.07539 3.18822 6.08492 3.17071 6.09029 3.15176C6.09565 3.13282 6.09671 3.11291 6.09338 3.0935C6.09323 3.07173 6.08792 3.05031 6.07788 3.031C6.07323 3.02535 6.06804 3.02015 6.06238 3.0155C6.04916 3.00187 6.03312 2.99129 6.01538 2.9845C6.00099 2.97645 5.98522 2.9712 5.96888 2.969Z" fill="black" fill-opacity="0.33"/>
	<path d="M2.47488 6.299L2.49338 3.1325L5.96638 3.117L2.47488 6.299Z" fill="url(#paint8_linear_2003_723)"/>
	<path d="M5.48438 5.4065C5.42638 5.4125 5.37388 5.4435 5.34038 5.4915C5.30688 5.5395 5.29688 5.6 5.31238 5.6565L5.65638 6.8595L8.03138 17.422L7.81238 18.578C7.80727 18.606 7.80824 18.6347 7.8152 18.6623C7.82216 18.6898 7.83497 18.7156 7.85275 18.7378C7.87053 18.76 7.89286 18.7781 7.91825 18.7909C7.94363 18.8037 7.97147 18.8109 7.99988 18.812H11.4529C11.4829 18.8111 11.5123 18.8034 11.5389 18.7896C11.5656 18.7758 11.5887 18.7561 11.6068 18.7321C11.6248 18.7081 11.6371 18.6803 11.643 18.6509C11.6488 18.6214 11.6479 18.5911 11.6404 18.562L11.4214 17.4525L12.0154 15.187L12.7499 17.4845L12.4219 18.547C12.4112 18.577 12.408 18.6091 12.4123 18.6407C12.4167 18.6722 12.4285 18.7023 12.4469 18.7283C12.4653 18.7543 12.4896 18.7755 12.5179 18.7902C12.5462 18.8048 12.5775 18.8125 12.6094 18.8125L16.4999 18.8285C16.5318 18.8286 16.5632 18.821 16.5915 18.8064C16.6199 18.7918 16.6443 18.7706 16.6627 18.7445C16.6811 18.7185 16.6929 18.6884 16.6972 18.6568C16.7015 18.6252 16.6981 18.593 16.6874 18.563L16.2344 17.344L18.0154 7.1095L18.6874 5.6875C18.7009 5.65791 18.707 5.62547 18.705 5.59299C18.7031 5.56052 18.6933 5.52902 18.6763 5.50124C18.6594 5.47346 18.6359 5.45025 18.608 5.43365C18.58 5.41704 18.5484 5.40755 18.5159 5.406H15.1249C15.0951 5.40492 15.0655 5.41053 15.0382 5.4224C15.011 5.43428 14.9867 5.45212 14.9672 5.47462C14.9477 5.49712 14.9335 5.52371 14.9257 5.55241C14.9179 5.58112 14.9166 5.61122 14.9219 5.6405L15.1249 6.7965L13.9529 13.406L12.1249 6.344C12.1111 6.30528 12.0857 6.27178 12.0521 6.24808C12.0186 6.22439 11.9785 6.21167 11.9374 6.21167C11.8963 6.21167 11.8562 6.22439 11.8226 6.24808C11.7891 6.27178 11.7636 6.30528 11.7499 6.344L9.98438 13.3595L8.51538 6.797L8.70288 5.641C8.70698 5.60942 8.70345 5.57732 8.69258 5.54739C8.6817 5.51746 8.6638 5.49058 8.64038 5.469C8.62235 5.44969 8.60062 5.43421 8.57648 5.42347C8.55234 5.41274 8.52629 5.40696 8.49988 5.4065H5.49988C5.49473 5.406 5.48954 5.406 5.48438 5.4065Z" fill="black" fill-opacity="0.29"/>
	<path d="M5.42188 5.25C5.37408 5.26123 5.32906 5.28205 5.28955 5.31121C5.25004 5.34036 5.21687 5.37723 5.19204 5.4196C5.16721 5.46196 5.15125 5.50892 5.14512 5.55764C5.13899 5.60635 5.14282 5.65581 5.15638 5.703L5.49988 6.8905H5.48438L7.85938 17.4215L7.64038 18.5465C7.63207 18.5985 7.63514 18.6518 7.64937 18.7025C7.66361 18.7532 7.68868 18.8003 7.72285 18.8404C7.75702 18.8805 7.79948 18.9127 7.84731 18.9348C7.89513 18.9569 7.94719 18.9684 7.99988 18.9685H11.4529C11.5071 18.9688 11.5607 18.9569 11.6098 18.9339C11.6589 18.9108 11.7022 18.8771 11.7367 18.8352C11.7711 18.7933 11.7958 18.7443 11.8088 18.6917C11.8219 18.639 11.8232 18.5841 11.8124 18.531L11.5934 17.4685L12.0309 15.7965L12.5779 17.484L12.2654 18.4995C12.2329 18.609 12.2539 18.727 12.3209 18.8195C12.3879 18.912 12.4949 18.9665 12.6089 18.9685L16.4999 18.9845C16.558 18.9844 16.6153 18.9703 16.6669 18.9436C16.7185 18.9169 16.763 18.8782 16.7966 18.8308C16.8303 18.7834 16.8521 18.7287 16.8603 18.6711C16.8685 18.6136 16.8629 18.5549 16.8439 18.5L16.4064 17.3125L18.1719 7.1875L18.8439 5.7655C18.8688 5.71024 18.8795 5.64967 18.8752 5.58923C18.8708 5.52879 18.8515 5.47038 18.819 5.41925C18.7864 5.36813 18.7417 5.32589 18.6888 5.29635C18.6359 5.2668 18.5765 5.25088 18.5159 5.25H15.1249C15.0722 5.25007 15.0202 5.26155 14.9724 5.28364C14.9247 5.30573 14.8822 5.33791 14.8481 5.37796C14.8139 5.41802 14.7888 5.465 14.7746 5.51567C14.7603 5.56634 14.7571 5.6195 14.7654 5.6715L14.9529 6.7965L13.9374 12.6095L12.2969 6.297C12.282 6.21244 12.2378 6.13581 12.1721 6.0806C12.1063 6.02539 12.0232 5.99512 11.9374 5.99512C11.8515 5.99512 11.7684 6.02539 11.7027 6.0806C11.6369 6.13581 11.5927 6.21244 11.5779 6.297L9.98438 12.6095L8.68738 6.75L8.85938 5.672C8.86779 5.61998 8.86479 5.56675 8.85058 5.516C8.83637 5.46526 8.8113 5.41821 8.77711 5.37811C8.74291 5.33802 8.7004 5.30584 8.65253 5.2838C8.60467 5.26177 8.55258 5.2504 8.49988 5.2505H5.49988C5.47397 5.24759 5.44783 5.24742 5.42188 5.25Z" fill="black" fill-opacity="0.29"/>
	<path d="M5.39038 5.094C5.32013 5.10877 5.2537 5.13795 5.1953 5.17971C5.1369 5.22146 5.0878 5.27488 5.0511 5.33658C5.0144 5.39828 4.9909 5.46692 4.98208 5.53817C4.97326 5.60941 4.97933 5.68171 4.99988 5.7505L5.34388 6.9225V6.9535L7.70338 17.391L7.48438 18.516C7.45788 18.668 7.49988 18.8235 7.59938 18.942C7.69888 19.059 7.84588 19.1265 7.99988 19.1255H11.4529C11.5306 19.1264 11.6075 19.1099 11.678 19.0772C11.7485 19.0445 11.8108 18.9964 11.8603 18.9364C11.9097 18.8764 11.9451 18.8062 11.9638 18.7307C11.9825 18.6553 11.9841 18.5766 11.9684 18.5005L11.7499 17.4375L12.0469 16.3435L12.4064 17.484L12.1094 18.453C12.0856 18.531 12.0804 18.6134 12.0943 18.6938C12.1082 18.7741 12.1408 18.85 12.1895 18.9154C12.2381 18.9808 12.3015 19.0339 12.3744 19.0703C12.4474 19.1067 12.5279 19.1254 12.6094 19.125L16.4999 19.1405C16.5819 19.1393 16.6624 19.1187 16.735 19.0804C16.8075 19.0421 16.8699 18.9871 16.9172 18.9201C16.9644 18.8531 16.9951 18.7758 17.0068 18.6946C17.0185 18.6134 17.0108 18.5306 16.9844 18.453L16.5624 17.3125L18.3279 7.2185L18.9839 5.828C19.0197 5.74921 19.0353 5.66271 19.0292 5.57637C19.0231 5.49003 18.9955 5.40659 18.949 5.33361C18.9024 5.26064 18.8384 5.20045 18.7626 5.15852C18.6869 5.11658 18.6019 5.09424 18.5154 5.0935H15.1249C15.0487 5.09276 14.9732 5.10883 14.9039 5.14057C14.8346 5.17231 14.7732 5.21894 14.7239 5.27714C14.6747 5.33534 14.6389 5.40368 14.6191 5.47728C14.5993 5.55089 14.596 5.62796 14.6094 5.703L14.7969 6.797L13.8909 11.891L12.4379 6.266C12.4072 6.15705 12.3417 6.06112 12.2514 5.99279C12.1612 5.92447 12.0511 5.8875 11.9379 5.8875C11.8247 5.8875 11.7146 5.92447 11.6243 5.99279C11.5341 6.06112 11.4686 6.15705 11.4379 6.266L9.99988 11.9845L8.84388 6.7815L9.01588 5.6875C9.02677 5.61359 9.02155 5.53821 9.00057 5.46651C8.97958 5.39481 8.94334 5.3285 8.89433 5.27212C8.84531 5.21574 8.78468 5.17064 8.7166 5.13989C8.64851 5.10915 8.57458 5.09349 8.49988 5.094H5.49988C5.46349 5.09 5.42677 5.09 5.39038 5.094Z" fill="black" fill-opacity="0.29"/>
	<path d="M5.42188 4.9065C5.31971 4.917 5.22106 4.94963 5.13278 5.00212C5.04451 5.05462 4.96873 5.12572 4.91072 5.21047C4.85271 5.29523 4.81386 5.3916 4.79688 5.49289C4.7799 5.59418 4.78519 5.69796 4.81238 5.797L5.15638 6.969V7L7.51588 17.422L7.31288 18.469C7.29273 18.571 7.29531 18.6761 7.32045 18.7769C7.34559 18.8778 7.39267 18.9718 7.45833 19.0524C7.52399 19.1329 7.60661 19.198 7.7003 19.243C7.794 19.2879 7.89646 19.3117 8.00038 19.3125H11.4534C11.6829 19.3135 11.8984 19.202 12.0314 19.0155C12.1644 19.202 12.3799 19.3135 12.6094 19.3125L16.4999 19.3285C16.7304 19.3265 16.9454 19.2125 17.0754 19.0225C17.2054 18.8325 17.2359 18.5915 17.1559 18.3755L16.7654 17.2975L18.4999 7.2975L19.1559 5.9225C19.2624 5.7025 19.2479 5.4435 19.1179 5.2365C19.0536 5.13494 18.9647 5.05138 18.8593 4.99366C18.7539 4.93593 18.6355 4.90594 18.5154 4.9065H15.1249C15.0213 4.90556 14.9187 4.92741 14.8244 4.9705C14.7302 5.0136 14.6466 5.07689 14.5795 5.15589C14.5124 5.23489 14.4635 5.32766 14.4363 5.42765C14.4091 5.52764 14.4041 5.6324 14.4219 5.7345L14.6094 6.797L13.8594 11L12.6249 6.219C12.5882 6.0642 12.5004 5.9263 12.3757 5.82761C12.2509 5.72893 12.0965 5.67525 11.9374 5.67525C11.7783 5.67525 11.6239 5.72893 11.4991 5.82761C11.3743 5.9263 11.2865 6.0642 11.2499 6.219L10.0154 11.141L9.03088 6.766L9.20288 5.719C9.2182 5.61804 9.21146 5.51495 9.18311 5.41684C9.15476 5.31874 9.10547 5.22794 9.03865 5.15072C8.97184 5.07349 8.88907 5.01167 8.79606 4.96951C8.70305 4.92735 8.602 4.90585 8.49988 4.9065H5.49988C5.4739 4.905 5.44786 4.905 5.42188 4.9065ZM12.0624 17.0315L12.2184 17.5005L12.0464 18.0315L11.9369 17.5005L12.0624 17.0315Z" fill="black" fill-opacity="0.29"/>
	<path d="M5.49588 5.6095L5.85138 6.8085L8.23438 17.41L7.99988 18.6135H11.4569L11.2184 17.4535L12.0034 14.477L12.9489 17.4925L12.6129 18.6135L16.5074 18.6215L16.0289 17.35L17.8189 7.084L18.5149 5.6075L15.1249 5.6095L15.3214 6.8025L13.9984 14.344L11.9379 6.391L9.96888 14.2035L8.31288 6.766L8.49988 5.6095H5.49588Z" fill="black" fill-opacity="0.29"/>
	<path d="M5.49988 5.6095L7.18938 6.8575L9.45088 17.375L7.99788 18.6135L8.23438 17.4065L5.85938 6.8125L5.49988 5.6095Z" fill="url(#paint9_linear_2003_723)"/>
	<path d="M9.45288 17.375L7.99788 18.6135L11.4609 18.6095L10.1249 17.383L9.45288 17.375Z" fill="#792100"/>
	<path d="M8.49188 5.621L7.19088 6.861L9.45288 17.375L10.1184 17.3805L9.98438 14.1095L8.37488 6.8125L8.49188 5.621Z" fill="url(#paint10_linear_2003_723)"/>
	<path d="M11.4589 18.6135L10.1269 17.385L11.9959 10.2035L12.0039 14.473L11.2184 17.4535L11.4589 18.6135Z" fill="url(#paint11_linear_2003_723)"/>
	<path d="M11.9374 6.375L11.9999 10.172L10.1229 17.389L9.99988 14.1405L11.9374 6.375Z" fill="url(#paint12_linear_2003_723)"/>
	<path d="M5.49588 5.6095L7.19138 6.8595L8.49988 5.6135L5.49588 5.6095Z" fill="url(#paint13_linear_2003_723)"/>
	<path d="M11.9334 6.383L11.9959 10.1995L13.7164 17.39L14.7894 17.3955L11.9334 6.383Z" fill="url(#paint14_linear_2003_723)"/>
	<path d="M11.9959 10.2035L12.0039 14.465L12.9519 17.4905L12.6159 18.6085L13.7264 17.3945L11.9959 10.2035Z" fill="url(#paint15_linear_2003_723)"/>
	<path d="M14.7849 17.389L13.7304 17.393L12.6084 18.6135L16.5049 18.6205L14.7849 17.389Z" fill="#792100"/>
	<path d="M17.8154 7.0675L18.5119 5.618L16.6359 6.679L14.7774 17.392L16.5089 18.624L16.0294 17.351L17.8154 7.0675Z" fill="url(#paint16_linear_2003_723)"/>
	<path d="M15.3214 6.797L15.1194 5.621L16.6379 6.672L14.7774 17.381L13.9969 14.342L15.3214 6.797Z" fill="url(#paint17_linear_2003_723)"/>
	<path d="M15.1174 5.6175L16.6284 6.6835L18.5199 5.611L15.1174 5.6175Z" fill="url(#paint18_linear_2003_723)"/>
	<path d="M11.9999 0.5785C5.70338 0.5785 0.593881 5.695 0.593881 12.0005C0.593881 18.306 5.70338 23.422 11.9999 23.422C18.2969 23.422 23.4059 18.3055 23.4059 12C23.4059 5.6945 18.2969 0.5785 11.9999 0.5785ZM11.9529 2.547C17.1174 2.547 21.2969 6.7365 21.2969 11.922C21.2969 17.1075 17.1174 21.3125 11.9529 21.3125C6.78838 21.3125 2.59338 17.1075 2.59338 11.922C2.59388 6.7365 6.78838 2.547 11.9529 2.547Z" fill="black" fill-opacity="0.26"/>
	<path d="M11.9999 0.4065C5.60938 0.4065 0.421881 5.6015 0.421881 12.0005C0.421881 18.399 5.60938 23.5945 11.9999 23.5945C18.3904 23.5945 23.5779 18.399 23.5779 12.0005C23.5779 5.6015 18.3904 0.4065 11.9999 0.4065ZM11.9529 2.719C17.0234 2.719 21.1249 6.83 21.1249 11.922C21.1249 17.014 17.0234 21.141 11.9529 21.141C6.88288 21.141 2.76538 17.014 2.76538 11.922C2.76538 6.8305 6.88238 2.719 11.9529 2.719Z" fill="black" fill-opacity="0.28"/>
	<path d="M11.9999 0.125C5.45738 0.125 0.140381 5.4495 0.140381 12C0.140381 18.5505 5.45738 23.875 11.9999 23.875C18.5429 23.875 23.8594 18.5505 23.8594 12C23.8594 5.4495 18.5429 0.125 11.9999 0.125ZM11.9529 3C16.8714 3 20.8434 6.981 20.8434 11.922C20.8434 16.863 16.8699 20.8595 11.9529 20.8595C7.03588 20.8595 3.04688 16.8615 3.04688 11.922C3.04688 6.9825 7.03438 3 11.9529 3Z" fill="black" fill-opacity="0.41"/>
	<path d="M11.9999 0.75C5.79488 0.75 0.765381 5.7865 0.765381 12C0.765381 18.214 5.79488 23.25 11.9999 23.25C18.2049 23.25 23.2344 18.214 23.2344 12C23.2344 5.7865 18.2049 0.75 11.9999 0.75ZM11.9529 2.375C17.2094 2.375 21.4684 6.6455 21.4684 11.922C21.4684 17.1985 17.2089 21.4845 11.9529 21.4845C6.69688 21.4845 2.42188 17.1985 2.42188 11.922C2.42188 6.6455 6.69688 2.375 11.9529 2.375Z" fill="url(#paint19_linear_2003_723)"/>
	<path d="M11.7164 0.8235C5.82538 0.8235 1.06038 5.595 1.06038 11.4955C1.06038 17.396 5.82588 22.1675 11.7164 22.1675C17.6069 22.1675 22.3729 17.396 22.3729 11.4955C22.3729 5.595 17.6074 0.8235 11.7164 0.8235ZM11.6694 1.292C17.2399 1.292 21.7634 5.828 21.7634 11.417C21.7634 17.006 17.2414 21.5575 11.6694 21.5575C6.09738 21.5575 1.56038 17.0075 1.56038 11.417C1.56038 5.8265 6.09888 1.292 11.6694 1.292Z" fill="url(#paint20_linear_2003_723)"/>
	<defs>
		<linearGradient id="paint0_linear_2003_723" x1="4.56191" y1="-2.05573" x2="16.7341" y2="22.2182" gradientUnits="userSpaceOnUse">
			<stop stop-color="#5B779E"/>
			<stop offset="0.399" stop-color="#2D3B50"/>
			<stop offset="1" stop-color="#0C0E14"/>
		</linearGradient>
		<linearGradient id="paint1_linear_2003_723" x1="13.0336" y1="6.0835" x2="19.9565" y2="23.7366" gradientUnits="userSpaceOnUse">
			<stop stop-opacity="0"/>
			<stop offset="1" stop-opacity="0.62"/>
		</linearGradient>
		<radialGradient id="paint2_radial_2003_723" cx="0" cy="0" r="1" gradientUnits="userSpaceOnUse" gradientTransform="translate(8.24172 4.22619) rotate(-9.68591) scale(45.0531 19.9065)">
			<stop stop-color="#BDD9F9"/>
			<stop offset="0.065" stop-color="#BDD9F9"/>
			<stop offset="1" stop-color="#1C3556" stop-opacity="0.1"/>
		</radialGradient>
		<linearGradient id="paint3_linear_2003_723" x1="-0.834409" y1="-8.869" x2="7.07963" y2="17.9271" gradientUnits="userSpaceOnUse">
			<stop stop-opacity="0"/>
			<stop offset="1" stop-opacity="0.62"/>
		</linearGradient>
		<radialGradient id="paint4_radial_2003_723" cx="0" cy="0" r="1" gradientUnits="userSpaceOnUse" gradientTransform="translate(13.2858 -3.62808) rotate(-6.97395) scale(50.325 16.1584)">
			<stop stop-color="#BDD9F9"/>
			<stop offset="0.065" stop-color="#BDD9F9"/>
			<stop offset="1" stop-color="#1C3556" stop-opacity="0.1"/>
		</radialGradient>
		<linearGradient id="paint5_linear_2003_723" x1="3.79746" y1="-4.34607" x2="27.4357" y2="18.0786" gradientUnits="userSpaceOnUse">
			<stop stop-color="#FDEC97"/>
			<stop offset="0.353" stop-color="#FDEC97"/>
			<stop offset="0.513" stop-color="#FDEC97"/>
			<stop offset="0.628" stop-color="#DB990F"/>
			<stop offset="1" stop-color="#DB990F"/>
		</linearGradient>
		<linearGradient id="paint6_linear_2003_723" x1="4.63539" y1="30.7482" x2="26.6941" y2="7.26773" gradientUnits="userSpaceOnUse">
			<stop stop-color="#FFDC76"/>
			<stop offset="0.327" stop-color="#E4903B"/>
			<stop offset="0.451" stop-color="#CA4400"/>
			<stop offset="0.58" stop-color="#FDEC97"/>
			<stop offset="0.704" stop-color="#DB990F"/>
			<stop offset="1" stop-color="#DB990F"/>
		</linearGradient>
		<linearGradient id="paint7_linear_2003_723" x1="14.9463" y1="26.8208" x2="0.155989" y2="9.04415" gradientUnits="userSpaceOnUse">
			<stop stop-color="#FFDC76"/>
			<stop offset="0.327" stop-color="#E4903B"/>
			<stop offset="0.451" stop-color="#CA4400"/>
			<stop offset="0.58" stop-color="#FDEC97"/>
			<stop offset="0.704" stop-color="#DB990F"/>
			<stop offset="1" stop-color="#DB990F"/>
		</linearGradient>
		<linearGradient id="paint8_linear_2003_723" x1="-4.10547" y1="17.8741" x2="18.1628" y2="-2.15728" gradientUnits="userSpaceOnUse">
			<stop stop-color="#CA4400"/>
			<stop offset="0.353" stop-color="#CA4400"/>
			<stop offset="0.513" stop-color="#FDEC97"/>
			<stop offset="0.628" stop-color="#DB990F"/>
			<stop offset="1" stop-color="#DB990F"/>
		</linearGradient>
		<linearGradient id="paint9_linear_2003_723" x1="3.14203" y1="0.26289" x2="4.74099" y2="23.4363" gradientUnits="userSpaceOnUse">
			<stop stop-color="#DA940F"/>
			<stop offset="0.235" stop-color="#EFD11A"/>
			<stop offset="0.75" stop-color="#EFD11A"/>
			<stop offset="0.908" stop-color="#EFD11A"/>
			<stop offset="1" stop-color="#D3900E"/>
		</linearGradient>
		<linearGradient id="paint10_linear_2003_723" x1="4.26437" y1="0.18357" x2="5.52246" y2="24.22" gradientUnits="userSpaceOnUse">
			<stop stop-color="#C63000"/>
			<stop offset="0.491" stop-color="#DB9000"/>
			<stop offset="0.8" stop-color="#DB9000"/>
			<stop offset="1" stop-color="#C43B00"/>
		</linearGradient>
		<linearGradient id="paint11_linear_2003_723" x1="29.4953" y1="2.52965" x2="28.3315" y2="24.3876" gradientUnits="userSpaceOnUse">
			<stop stop-color="#AD2F00"/>
			<stop offset="1" stop-color="#CB7500"/>
		</linearGradient>
		<linearGradient id="paint12_linear_2003_723" x1="29.1962" y1="2.69105" x2="28.0917" y2="21.1169" gradientUnits="userSpaceOnUse">
			<stop stop-color="#ECD500"/>
			<stop offset="0.869" stop-color="#ECD500"/>
			<stop offset="1" stop-color="#FFEF57"/>
		</linearGradient>
		<linearGradient id="paint13_linear_2003_723" x1="11.6209" y1="-1.0055" x2="27.0702" y2="12.1313" gradientUnits="userSpaceOnUse">
			<stop stop-color="#FFD511"/>
			<stop offset="1" stop-color="#FDF8DC"/>
		</linearGradient>
		<linearGradient id="paint14_linear_2003_723" x1="-3.45983" y1="2.17812" x2="-1.71056" y2="25.5459" gradientUnits="userSpaceOnUse">
			<stop stop-color="#BD3300"/>
			<stop offset="0.188" stop-color="#BD3300"/>
			<stop offset="0.411" stop-color="#CB8500"/>
			<stop offset="1" stop-color="#C26F00"/>
		</linearGradient>
		<linearGradient id="paint15_linear_2003_723" x1="-8.02866" y1="3.03971" x2="-6.80063" y2="23.4759" gradientUnits="userSpaceOnUse">
			<stop stop-color="#FFD303"/>
			<stop offset="0.902" stop-color="#FFD303"/>
			<stop offset="1" stop-color="#D27E00"/>
		</linearGradient>
		<linearGradient id="paint16_linear_2003_723" x1="19.0197" y1="-0.318737" x2="17.8351" y2="24.336" gradientUnits="userSpaceOnUse">
			<stop stop-color="#A51F00"/>
			<stop offset="0.288" stop-color="#C67200"/>
			<stop offset="0.644" stop-color="#C67200"/>
			<stop offset="1" stop-color="#C25500"/>
		</linearGradient>
		<linearGradient id="paint17_linear_2003_723" x1="18.5785" y1="0.203763" x2="17.5456" y2="24.4975" gradientUnits="userSpaceOnUse">
			<stop stop-color="#CD7C00"/>
			<stop offset="0.314" stop-color="#EED700"/>
			<stop offset="1" stop-color="#EED700"/>
		</linearGradient>
		<linearGradient id="paint18_linear_2003_723" x1="11.8692" y1="-1.22582" x2="26.1116" y2="8.06723" gradientUnits="userSpaceOnUse">
			<stop stop-color="#FFD511"/>
			<stop offset="1" stop-color="#FDF8DC"/>
		</linearGradient>
		<linearGradient id="paint19_linear_2003_723" x1="-1.2483" y1="17.51" x2="26.092" y2="6.14026" gradientUnits="userSpaceOnUse">
			<stop stop-color="#51290E"/>
			<stop offset="0.346" stop-color="#D08E29"/>
			<stop offset="0.417" stop-color="#E1D02D"/>
			<stop offset="0.498" stop-color="#F6E57F"/>
			<stop offset="0.537" stop-color="#F6E57F"/>
			<stop offset="0.605" stop-color="#E1D02D"/>
			<stop offset="0.687" stop-color="#D08E29"/>
			<stop offset="1" stop-color="#452A15"/>
		</linearGradient>
		<linearGradient id="paint20_linear_2003_723" x1="18.2" y1="20.705" x2="4.80005" y2="1.74999" gradientUnits="userSpaceOnUse">
			<stop stop-color="#FFE12B"/>
			<stop offset="0.136" stop-color="#FFF7C7" stop-opacity="0"/>
			<stop offset="0.819" stop-color="#FFF7C7" stop-opacity="0"/>
			<stop offset="1" stop-color="#FFE12B"/>
		</linearGradient>
	</defs>
</svg>
